<?xml version="1.0" standalone="no"?>
<svg xmlns="http://www.w3.org/2000/svg" xmlns:xlink="http://www.w3.org/1999/xlink" width="134pt" height="188pt" viewBox="0.00 0.00 134.00 188.00">
<g id="graph0" class="graph" transform="translate(4,184) scale(1)" data-name="ArvoreBin">

<polygon fill="white" stroke="none" points="-4,4 -4,-184 130,-184 130,4 -4,4" style=""/>
<!-- 10 -->
<g id="node1" class="node" pointer-events="visible" data-name="10">

<ellipse fill="none" stroke="black" cx="63" cy="-162" rx="27" ry="18" style=""/>
<text text-anchor="middle" x="63" y="-157.8" font-family="Times,serif" font-size="14.00" style="">10</text>
</g>
<!-- 4 -->
<g id="node2" class="node" pointer-events="visible" data-name="4">

<ellipse fill="none" stroke="black" cx="27" cy="-90" rx="27" ry="18" style=""/>
<text text-anchor="middle" x="27" y="-85.8" font-family="Times,serif" font-size="14.00" style="">4</text>
</g>
<!-- 10&#45;&gt;4 -->
<g id="edge1" class="edge" data-name="10-&gt;4">

<path fill="none" stroke="black" d="M54.65,-144.76C50.42,-136.55 45.19,-126.37 40.42,-117.09" style=""/>
<polygon fill="black" stroke="black" points="43.68,-115.79 36,-108.49 37.46,-118.99 43.68,-115.79" style=""/>
</g>
<!-- 20 -->
<g id="node3" class="node" pointer-events="visible" data-name="20">

<ellipse fill="none" stroke="black" cx="99" cy="-90" rx="27" ry="18" style=""/>
<text text-anchor="middle" x="99" y="-85.8" font-family="Times,serif" font-size="14.00" style="">20</text>
</g>
<!-- 10&#45;&gt;20 -->
<g id="edge2" class="edge" data-name="10-&gt;20">

<path fill="none" stroke="black" d="M71.35,-144.76C75.58,-136.55 80.81,-126.37 85.58,-117.09" style=""/>
<polygon fill="black" stroke="black" points="88.54,-118.99 90,-108.49 82.32,-115.79 88.54,-118.99" style=""/>
</g>
<!-- 9 -->
<g id="node4" class="node" pointer-events="visible" data-name="9">

<ellipse fill="none" stroke="black" cx="27" cy="-18" rx="27" ry="18" style=""/>
<text text-anchor="middle" x="27" y="-13.8" font-family="Times,serif" font-size="14.00" style="">9</text>
</g>
<!-- 4&#45;&gt;9 -->
<g id="edge3" class="edge" data-name="4-&gt;9">

<path fill="none" stroke="black" d="M27,-71.7C27,-64.41 27,-55.73 27,-47.54" style=""/>
<polygon fill="black" stroke="black" points="30.5,-47.62 27,-37.62 23.5,-47.62 30.5,-47.62" style=""/>
</g>
<!-- 31 -->
<g id="node5" class="node" pointer-events="visible" data-name="31">

<ellipse fill="none" stroke="black" cx="99" cy="-18" rx="27" ry="18" style=""/>
<text text-anchor="middle" x="99" y="-13.8" font-family="Times,serif" font-size="14.00" style="">31</text>
</g>
<!-- 20&#45;&gt;31 -->
<g id="edge4" class="edge" data-name="20-&gt;31">

<path fill="none" stroke="black" d="M99,-71.7C99,-64.41 99,-55.73 99,-47.54" style=""/>
<polygon fill="black" stroke="black" points="102.5,-47.62 99,-37.62 95.5,-47.62 102.5,-47.62" style=""/>
</g>
</g>
</svg>