<?xml version="1.0" standalone="no"?>
<svg xmlns="http://www.w3.org/2000/svg" xmlns:xlink="http://www.w3.org/1999/xlink" width="170pt" height="188pt" viewBox="0.00 0.00 170.00 188.00">
<g id="graph0" class="graph" transform="translate(4,184) scale(1)" data-name="ArvoreBin">

<polygon fill="white" stroke="none" points="-4,4 -4,-184 166,-184 166,4 -4,4" style=""/>
<!-- 5 -->
<g id="node1" class="node" pointer-events="visible" data-name="5">

<ellipse fill="none" stroke="black" cx="63" cy="-162" rx="27" ry="18" style=""/>
<text text-anchor="middle" x="63" y="-157.8" font-family="Times,serif" font-size="14.00" style="">5</text>
</g>
<!-- 4 -->
<g id="node2" class="node" pointer-events="visible" data-name="4">

<ellipse fill="none" stroke="black" cx="27" cy="-90" rx="27" ry="18" style=""/>
<text text-anchor="middle" x="27" y="-85.8" font-family="Times,serif" font-size="14.00" style="">4</text>
</g>
<!-- 5&#45;&gt;4 -->
<g id="edge1" class="edge" data-name="5-&gt;4">

<path fill="none" stroke="black" d="M54.65,-144.76C50.42,-136.55 45.19,-126.37 40.42,-117.09" style=""/>
<polygon fill="black" stroke="black" points="43.68,-115.79 36,-108.49 37.46,-118.99 43.68,-115.79" style=""/>
</g>
<!-- 10 -->
<g id="node3" class="node" pointer-events="visible" data-name="10">

<ellipse fill="none" stroke="black" cx="99" cy="-90" rx="27" ry="18" style=""/>
<text text-anchor="middle" x="99" y="-85.8" font-family="Times,serif" font-size="14.00" style="">10</text>
</g>
<!-- 5&#45;&gt;10 -->
<g id="edge2" class="edge" data-name="5-&gt;10">

<path fill="none" stroke="black" d="M71.35,-144.76C75.58,-136.55 80.81,-126.37 85.58,-117.09" style=""/>
<polygon fill="black" stroke="black" points="88.54,-118.99 90,-108.49 82.32,-115.79 88.54,-118.99" style=""/>
</g>
<!-- 7 -->
<g id="node4" class="node" pointer-events="visible" data-name="7">

<ellipse fill="none" stroke="black" cx="63" cy="-18" rx="27" ry="18" style=""/>
<text text-anchor="middle" x="63" y="-13.8" font-family="Times,serif" font-size="14.00" style="">7</text>
</g>
<!-- 10&#45;&gt;7 -->
<g id="edge3" class="edge" data-name="10-&gt;7">

<path fill="none" stroke="black" d="M90.65,-72.76C86.42,-64.55 81.19,-54.37 76.42,-45.09" style=""/>
<polygon fill="black" stroke="black" points="79.68,-43.79 72,-36.49 73.46,-46.99 79.68,-43.79" style=""/>
</g>
<!-- 24 -->
<g id="node5" class="node" pointer-events="visible" data-name="24">

<ellipse fill="none" stroke="black" cx="135" cy="-18" rx="27" ry="18" style=""/>
<text text-anchor="middle" x="135" y="-13.8" font-family="Times,serif" font-size="14.00" style="">24</text>
</g>
<!-- 10&#45;&gt;24 -->
<g id="edge4" class="edge" data-name="10-&gt;24">

<path fill="none" stroke="black" d="M107.35,-72.76C111.58,-64.55 116.81,-54.37 121.58,-45.09" style=""/>
<polygon fill="black" stroke="black" points="124.54,-46.99 126,-36.49 118.32,-43.79 124.54,-46.99" style=""/>
</g>
</g>
</svg>