<?xml version="1.0" standalone="no"?>
<svg xmlns="http://www.w3.org/2000/svg" xmlns:xlink="http://www.w3.org/1999/xlink" width="134pt" height="260pt" viewBox="0.00 0.00 134.00 260.00">
<g id="graph0" class="graph" transform="translate(4,256) scale(1)" data-name="ArvoreBin">

<polygon fill="white" stroke="none" points="-4,4 -4,-256 130,-256 130,4 -4,4" style=""/>
<!-- 5 -->
<g id="node1" class="node" pointer-events="visible" data-name="5">

<ellipse fill="none" stroke="black" cx="63" cy="-234" rx="27" ry="18" style=""/>
<text text-anchor="middle" x="63" y="-229.8" font-family="Times,serif" font-size="14.00" style="">5</text>
</g>
<!-- 3 -->
<g id="node2" class="node" pointer-events="visible" data-name="3">

<ellipse fill="none" stroke="black" cx="27" cy="-162" rx="27" ry="18" style=""/>
<text text-anchor="middle" x="27" y="-157.8" font-family="Times,serif" font-size="14.00" style="">3</text>
</g>
<!-- 5&#45;&gt;3 -->
<g id="edge1" class="edge" data-name="5-&gt;3">

<path fill="none" stroke="black" d="M54.65,-216.76C50.42,-208.55 45.19,-198.37 40.42,-189.09" style=""/>
<polygon fill="black" stroke="black" points="43.68,-187.79 36,-180.49 37.46,-190.99 43.68,-187.79" style=""/>
</g>
<!-- 100 -->
<g id="node3" class="node" pointer-events="visible" data-name="100">

<ellipse fill="none" stroke="black" cx="99" cy="-162" rx="27" ry="18" style=""/>
<text text-anchor="middle" x="99" y="-157.8" font-family="Times,serif" font-size="14.00" style="">100</text>
</g>
<!-- 5&#45;&gt;100 -->
<g id="edge2" class="edge" data-name="5-&gt;100">

<path fill="none" stroke="black" d="M71.35,-216.76C75.58,-208.55 80.81,-198.37 85.58,-189.09" style=""/>
<polygon fill="black" stroke="black" points="88.54,-190.99 90,-180.49 82.32,-187.79 88.54,-190.99" style=""/>
</g>
<!-- 50 -->
<g id="node4" class="node" pointer-events="visible" data-name="50">

<ellipse fill="none" stroke="black" cx="99" cy="-90" rx="27" ry="18" style=""/>
<text text-anchor="middle" x="99" y="-85.8" font-family="Times,serif" font-size="14.00" style="">50</text>
</g>
<!-- 100&#45;&gt;50 -->
<g id="edge3" class="edge" data-name="100-&gt;50">

<path fill="none" stroke="black" d="M99,-143.7C99,-136.41 99,-127.73 99,-119.54" style=""/>
<polygon fill="black" stroke="black" points="102.5,-119.62 99,-109.62 95.5,-119.62 102.5,-119.62" style=""/>
</g>
<!-- 6 -->
<g id="node5" class="node" pointer-events="visible" data-name="6">

<ellipse fill="none" stroke="black" cx="99" cy="-18" rx="27" ry="18" style=""/>
<text text-anchor="middle" x="99" y="-13.8" font-family="Times,serif" font-size="14.00" style="">6</text>
</g>
<!-- 50&#45;&gt;6 -->
<g id="edge4" class="edge" data-name="50-&gt;6">

<path fill="none" stroke="black" d="M99,-71.7C99,-64.41 99,-55.73 99,-47.54" style=""/>
<polygon fill="black" stroke="black" points="102.5,-47.62 99,-37.62 95.5,-47.62 102.5,-47.62" style=""/>
</g>
</g>
</svg>